# xmcd CD database file
#
# Track frame offsets:
#	150
#	12087
#	23309
#	34474
#	47952
#	57536
#	65723
#	81756
#	94921
#	107805
#	118950
#	133433
#
# Disc length: 1997 seconds
#
# Revision: 0
# Processed by: cddbd v1.5.1PL0 Copyright (c) Steve Scherf et al.
# Submitted via: CDex 1.51
#
DISCID=ae07cb0c
DTITLE=Various Artist - Country Family
DYEAR=1900
DGENRE=Country
TTITLE0=Sweet Desire
TTITLE1=Husbands and Wives
TTITLE2=Big Midnight Special
TTITLE3=The Games That Daddies Play
TTITLE4=Dreams of the Eeryday Housewife
TTITLE5=I'm a One Woman Man
TTITLE6=All I need Is You
TTITLE7=I'd Like to Teach the World To Sing
TTITLE8=She's All I Got
TTITLE9=Livin' In A House Full Of Love
TTITLE10=My Bi John
TTITLE11=From This Moment On
EXTD=
EXTT0=
EXTT1=
EXTT2=
EXTT3=
EXTT4=
EXTT5=
EXTT6=
EXTT7=
EXTT8=
EXTT9=
EXTT10=
EXTT11=
PLAYORDER=
